<?xml version="1.0" encoding="utf-8"?>
<!-- Generator: Adobe Illustrator 23.0.3, SVG Export Plug-In . SVG Version: 6.00 Build 0)  -->
<svg version="1.1" id="Calque_1" xmlns="http://www.w3.org/2000/svg" xmlns:xlink="http://www.w3.org/1999/xlink" x="0px" y="0px"
	 viewBox="0 0 1440 320" style="enable-background:new 0 0 1440 320;" xml:space="preserve">
<style type="text/css">
	.st0{fill:#63A4E9;}
</style>
<path class="st0" d="M0.5,281.8l18.6,40.3c23.1-6.2,84.9-23.2,182.8-9.2c77.5,11.1,199.3,7.6,280,1.2
	c160.7-33.5,321.3-134,482-142.3c160.7-9,321.3,75.9,401.7,117.2L1446,320c0.1,0,0-0.1,0,0v111.1c0,0.2-0.1,0.3-0.3,0.3h-80
	c-80.3,0-241,0-401.7,0s-321.3,0-482,0s-321.3,0-401.7,0h-80c-0.2,0-0.3-0.1-0.3-0.3V281.9C0,281.6,0.4,281.5,0.5,281.8z"/>
</svg>
